<svg width="525" height="167" viewBox="0 0 525 167" fill="none" xmlns="http://www.w3.org/2000/svg">
<path d="M153 74.0543H162.576C166.986 74.0543 168.96 73.7753 171.438 71.9816C173.622 70.5467 174.798 68.0355 174.798 65.3649C174.798 64.0894 174.588 59.944 169.38 58.2698C171.732 57.0342 173.202 54.9216 173.202 52.2111C173.202 49.7797 172.278 47.6272 170.178 46.3119C168.582 45.1559 166.23 44.558 163.206 44.558H153V74.0543ZM159.258 49.7797H162.702C163.836 49.7797 164.76 49.8993 165.474 50.2181C166.356 50.5769 167.196 51.4937 167.196 53.0083C167.196 54.4034 166.65 55.3601 165.432 55.958C164.634 56.2768 163.626 56.3566 162.744 56.3566H159.258V49.7797ZM159.258 61.339H163.458C164.55 61.339 165.6 61.339 166.608 61.7376C167.868 62.2558 168.792 63.2922 168.792 65.0062C168.792 66.8796 167.826 67.8761 166.566 68.3942C165.6 68.7928 164.466 68.8327 163.668 68.8327H159.258V61.339Z" fill="black"/>
<path d="M178.835 49.2216H184.337V44.558H178.835V49.2216ZM178.835 74.0543H184.337V52.1713H178.835V74.0543Z" fill="black"/>
<path d="M189.745 74.0543H195.037V70.9054C196.255 73.0579 199.069 74.732 202.681 74.732C208.981 74.732 214.441 70.4271 214.441 63.0132C214.441 55.2803 208.393 51.4937 202.933 51.4937C200.833 51.4937 197.515 52.2111 195.247 54.8817V52.251V44.558H189.745V74.0543ZM208.939 63.0929C208.939 66.481 206.377 69.8691 201.883 69.8691C197.725 69.8691 195.037 66.76 195.037 63.0929C195.037 59.5454 197.725 56.3566 202.009 56.3566C206.041 56.3566 208.939 59.4656 208.939 63.053V63.0929Z" fill="black"/>
<path d="M218.661 74.0543H224.163V44.558H218.661V74.0543Z" fill="black"/>
<path d="M252.209 64.8467C252.671 61.0202 251.621 57.5922 248.807 54.8419C246.665 52.7293 243.641 51.4937 240.197 51.4937C233.225 51.4937 228.101 56.9545 228.101 63.1726C228.101 69.2712 233.183 74.732 240.281 74.732C242.675 74.732 244.943 74.0942 246.875 72.8187C248.807 71.583 250.445 69.7495 251.537 67.318H245.867C244.817 69.1117 243.011 70.2677 240.323 70.2677C237.173 70.3075 233.897 68.3544 233.645 64.8467H252.209ZM233.729 60.8607C233.939 58.7083 236.165 55.9181 240.239 55.9181C244.271 55.8782 246.581 58.788 246.791 60.8607H233.729Z" fill="black"/>
<path d="M269.028 49.2216H274.53V44.558H269.028V49.2216ZM269.028 74.0543H274.53V52.1713H269.028V74.0543Z" fill="black"/>
<path d="M279.938 74.0543H285.44V61.9768C285.44 58.9076 286.784 56.4363 290.69 56.3964C294.554 56.3964 295.688 58.9076 295.688 62.1761V74.0543H301.19V60.8607C301.19 56.9943 299.762 51.5335 292.244 51.4937C288.128 51.4538 286.07 53.3671 285.062 55.081C285.104 54.0447 285.104 53.1279 285.104 52.1713H279.938V74.0543Z" fill="black"/>
<path d="M318.014 59.5852C318.014 67.4775 324.734 74.6124 334.268 74.6124C343.76 74.6124 350.648 67.6768 350.648 59.3062C350.648 50.9356 343.718 44 334.31 44C325.658 44 318.014 50.0986 318.014 59.5454V59.5852ZM324.272 59.2663C324.272 54.0845 328.136 49.2216 334.352 49.2216C340.694 49.2216 344.39 54.4034 344.39 59.3461C344.39 64.209 340.694 69.3907 334.394 69.3907C328.346 69.3907 324.272 64.6873 324.272 59.3062V59.2663Z" fill="black"/>
<path d="M354.915 74.0543H360.417V61.9768C360.417 58.9076 361.761 56.4363 365.667 56.3964C369.531 56.3964 370.665 58.9076 370.665 62.1761V74.0543H376.167V60.8607C376.167 56.9943 374.739 51.5335 367.221 51.4937C363.105 51.4538 361.047 53.3671 360.039 55.081C360.081 54.0447 360.081 53.1279 360.081 52.1713H354.915V74.0543Z" fill="black"/>
<path d="M404.172 64.8467C404.634 61.0202 403.584 57.5922 400.77 54.8419C398.628 52.7293 395.604 51.4937 392.16 51.4937C385.188 51.4937 380.064 56.9545 380.064 63.1726C380.064 69.2712 385.146 74.732 392.244 74.732C394.638 74.732 396.906 74.0942 398.838 72.8187C400.77 71.583 402.408 69.7495 403.5 67.318H397.83C396.78 69.1117 394.974 70.2677 392.286 70.2677C389.136 70.3075 385.86 68.3544 385.608 64.8467H404.172ZM385.692 60.8607C385.902 58.7083 388.128 55.9181 392.202 55.9181C396.234 55.8782 398.544 58.788 398.754 60.8607H385.692Z" fill="black"/>
<path d="M424.074 74.0543H430.332V63.4915L439.824 44.558H433.104L427.182 57.951L421.302 44.558H414.54L424.074 63.4915V74.0543Z" fill="black"/>
<path d="M461.43 64.8467C461.892 61.0202 460.842 57.5922 458.028 54.8419C455.886 52.7293 452.862 51.4937 449.418 51.4937C442.446 51.4937 437.322 56.9545 437.322 63.1726C437.322 69.2712 442.404 74.732 449.502 74.732C451.896 74.732 454.164 74.0942 456.096 72.8187C458.028 71.583 459.666 69.7495 460.758 67.318H455.088C454.038 69.1117 452.232 70.2677 449.544 70.2677C446.394 70.3075 443.118 68.3544 442.866 64.8467H461.43ZM442.95 60.8607C443.16 58.7083 445.386 55.9181 449.46 55.9181C453.492 55.8782 455.802 58.788 456.012 60.8607H442.95Z" fill="black"/>
<path d="M489.388 52.1713H483.886V55.3601C482.878 53.6062 480.316 51.4937 476.116 51.4937C469.648 51.4937 464.398 56.1971 464.398 63.0929C464.398 69.2712 468.724 74.732 476.116 74.732C479.35 74.732 482.416 73.4565 483.886 70.9054V74.0543H489.388V52.1713ZM469.9 63.1726C469.9 59.7845 472.42 56.3566 476.872 56.3566C480.19 56.3566 482.332 58.1503 483.298 60.223C483.76 61.1796 483.97 62.2558 483.928 63.2922C483.844 64.3684 483.592 65.4048 483.046 66.3614C481.996 68.3544 479.98 69.8691 476.914 69.8691C471.958 69.8691 469.9 65.9229 469.9 63.2125V63.1726Z" fill="black"/>
<path d="M494.818 74.0543H500.32V62.2558C500.32 58.4691 502.294 56.7552 506.158 56.7552H506.41V51.4937C502.924 51.5335 501.034 53.0881 500.026 55.0412V52.1713H494.818V74.0543Z" fill="black"/>
<path fill-rule="evenodd" clip-rule="evenodd" d="M135.653 0H31.3049V149.48L83.4198 126.43L135.653 149.48V0ZM56.2685 101.766V23.3213H90.1171L90.1173 23.3258C101.933 24.2183 108.945 32.9434 108.945 43.2993C108.945 51.209 105.113 57.6509 100.383 59.6895C110.576 61.0757 116.039 69.1484 116.039 78.6074C116.039 90.3496 109.434 100.706 89.6196 101.521C81.7099 101.521 56.2685 101.766 56.2685 101.766Z" fill="#E42312"/>
</svg>
