<?xml version="1.0" encoding="UTF-8" standalone="no"?>
<!-- Created with Inkscape (http://www.inkscape.org/) -->

<svg
   version="1.1"
   id="svg2"
   width="1066.6667"
   height="666.66669"
   viewBox="0 0 1066.6667 666.66669"
   sodipodi:docname="The Bible w NPG – Red.ai"
   xmlns:inkscape="http://www.inkscape.org/namespaces/inkscape"
   xmlns:sodipodi="http://sodipodi.sourceforge.net/DTD/sodipodi-0.dtd"
   xmlns="http://www.w3.org/2000/svg"
   xmlns:svg="http://www.w3.org/2000/svg">
  <defs
     id="defs6">
    <clipPath
       clipPathUnits="userSpaceOnUse"
       id="clipPath16">
      <path
         d="M 0,500 H 800 V 0 H 0 Z"
         id="path14" />
    </clipPath>
  </defs>
  <sodipodi:namedview
     id="namedview4"
     pagecolor="#ffffff"
     bordercolor="#000000"
     borderopacity="0.25"
     inkscape:showpageshadow="2"
     inkscape:pageopacity="0.0"
     inkscape:pagecheckerboard="0"
     inkscape:deskcolor="#d1d1d1" />
  <g
     id="g8"
     inkscape:groupmode="layer"
     inkscape:label="The Bible w NPG – Red"
     transform="matrix(1.3333333,0,0,-1.3333333,0,666.66667)">
    <g
       id="g10">
      <g
         id="g12"
         clip-path="url(#clipPath16)">
        <g
           id="g18"
           transform="translate(144.7466,192.6558)">
          <path
             d="M 0,0 H -24.213 V 34.774 H 0.258 c 11.334,0 22.668,-2.834 22.668,-16.486 C 22.926,4.122 12.107,0 0,0 m -24.213,105.094 h 18.805 c 10.045,0 19.06,-2.318 19.06,-14.425 0,-12.106 -8.757,-15.197 -19.318,-15.197 H -24.213 Z M 38.123,59.502 c 14.167,7.985 22.152,22.152 22.152,38.38 0,11.848 -3.349,22.667 -11.334,31.425 -16.485,18.289 -38.123,18.546 -61.046,18.546 h -58.73 V -42.759 h 60.532 c 24.728,0 42.759,-0.258 62.335,16.486 11.849,10.045 17.516,26.273 17.516,41.471 0,21.636 -10.562,37.092 -31.425,44.304"
             style="fill:#e42312;fill-opacity:1;fill-rule:nonzero;stroke:none"
             id="path20" />
        </g>
        <g
           id="g22"
           transform="translate(289.738,149.897)">
          <path
             d="M 0,0 H 0.306 V 190.612 H -48.376 V 0 h 0.077 l 24.149,11.177 z"
             style="fill:#e42312;fill-opacity:1;fill-rule:nonzero;stroke:none"
             id="path24" />
        </g>
        <g
           id="g26"
           transform="translate(395.9614,192.6558)">
          <path
             d="M 0,0 H -24.213 V 34.774 H 0.258 c 11.334,0 22.667,-2.834 22.667,-16.486 C 22.925,4.122 12.106,0 0,0 m -24.213,105.094 h 18.804 c 10.046,0 19.061,-2.318 19.061,-14.425 0,-12.106 -8.757,-15.197 -19.319,-15.197 H -24.213 Z M 38.122,59.502 c 14.167,7.985 22.152,22.152 22.152,38.38 0,11.848 -3.348,22.667 -11.333,31.425 -16.486,18.289 -38.123,18.546 -61.047,18.546 h -58.73 V -42.759 h 60.532 c 24.728,0 42.759,-0.258 62.335,16.486 11.85,10.045 17.516,26.273 17.516,41.471 0,21.636 -10.561,37.092 -31.425,44.304"
             style="fill:#e42312;fill-opacity:1;fill-rule:nonzero;stroke:none"
             id="path28" />
        </g>
        <g
           id="g30"
           transform="translate(541.4653,340.5089)">
          <path
             d="M 0,0 H -48.684 V -190.612 H 56.41 v 42.759 H 0 Z"
             style="fill:#e42312;fill-opacity:1;fill-rule:nonzero;stroke:none"
             id="path32" />
        </g>
        <g
           id="g34"
           transform="translate(720.2524,297.7501)">
          <path
             d="M 0,0 V 42.759 H -105.867 V -147.853 H 0 v 42.759 h -59.244 v 32.713 h 57.441 v 42.759 H -59.244 V 0 Z"
             style="fill:#e42312;fill-opacity:1;fill-rule:nonzero;stroke:none"
             id="path36" />
        </g>
      </g>
    </g>
    <g
       aria-label="THE"
       transform="matrix(1,0,0,-1,74.6641,369.3188)"
       id="text40"
       style="font-weight:bold;font-size:75.3073px;font-family:'ITC Avant Garde Pro Md';-inkscape-font-specification:ITCAvantGardePro-Bold;fill:#e42312">
      <path
         d="M 0.36771141,-54.899314 H 50.964801 v 10.700403 H 32.763087 V 0 H 18.606197 V -44.198911 H 0.36771141 Z"
         id="path50" />
      <path
         d="m 45.169082,-54.899314 h 14.156889 v 20.92278 h 20.886008 v -20.92278 H 94.368868 V 0 H 80.211979 V -23.276132 H 59.325971 V 0 H 45.169082 Z"
         id="path52" />
      <path
         d="m 102.62855,-54.899314 h 38.20522 v 10.700403 h -24.04833 v 10.222377 h 22.61425 v 10.700402 h -22.61425 v 12.57573 h 24.85729 V 0 h -39.01418 z"
         id="path54" />
    </g>
    <g
       aria-label="WITH "
       transform="matrix(1,0,0,-1,74.0884,78.8027)"
       id="text44"
       style="font-weight:300;font-size:37.1824px;font-family:'ITC Avant Garde Pro Bk';-inkscape-font-specification:ITCAvantGardePro-Bk;fill:#e42312">
      <path
         d="m 1.2345719,-27.106115 h 3.7037156 l 5.7008175,22.9122017 5.682661,-22.9122017 h 4.121292 l 5.700817,22.9122017 5.682662,-22.9122017 h 3.721871 L 28.740107,0 H 24.128618 L 18.409645,-23.529487 12.636206,0 H 8.0247171 Z"
         id="path57" />
      <path
         d="m 42.415618,-27.106115 h 3.667405 V 0 h -3.667405 z"
         id="path59" />
      <path
         d="m 50.109615,-27.106115 h 22.930357 v 3.08643 H 63.417574 V 0 h -3.685561 v -24.019685 h -9.622398 z"
         id="path61" />
      <path
         d="m 72.756457,-27.106115 h 3.667405 v 11.111147 h 13.326114 v -11.111147 h 3.667405 V 0 H 89.749976 V -12.908538 H 76.423862 V 0 h -3.667405 z"
         id="path63" />
    </g>
    <g
       aria-label="NICKY AND PIPPA GUMBEL"
       transform="matrix(1,0,0,-1,185.59842,78.8027)"
       id="text48"
       style="font-weight:500;font-size:37.1824px;font-family:'ITC Avant Garde Pro Md';-inkscape-font-specification:ITCAvantGardePro-Md;fill:#e42312">
      <path
         d="M 3.6492492,-27.106115 H 8.5875367 L 20.606457,-4.4299343 V -27.106115 h 3.558472 V 0 H 19.226641 L 7.207721,-22.67618 V 0 H 3.6492492 Z"
         id="path66" />
      <path
         d="M 34.332166,-27.106115 H 37.99957 V 0 h -3.667404 z"
         id="path68" />
      <path
         d="m 67.312896,-25.018236 v 3.867115 q -1.851857,-1.724769 -3.957892,-2.578076 -2.087879,-0.853308 -4.44809,-0.853308 -4.6478,0 -7.116943,2.850409 -2.469144,2.832253 -2.469144,8.206272 0,5.3558631 2.469144,8.2062717 2.469143,2.8322531 7.116943,2.8322531 2.360211,0 4.44809,-0.853307 2.106035,-0.8533071 3.957892,-2.5780766 v 3.8308039 q -1.924479,1.30719375 -4.08498,1.96079062 -2.142345,0.65359687 -4.538867,0.65359687 -6.154704,0 -9.69502,-3.75818199 -3.540317,-3.7763375 -3.540317,-10.2941506 0,-6.535969 3.540317,-10.294151 3.540316,-3.776337 9.69502,-3.776337 2.432833,0 4.575178,0.653597 2.160501,0.635441 4.048669,1.924479 z"
         id="path70" />
      <path
         d="m 78.861804,-27.106115 h 3.667405 v 11.456101 l 12.164164,-11.456101 h 4.720422 L 85.960592,-14.469908 100.37603,0 H 95.54668 L 82.529209,-13.053782 V 0 h -3.667405 z"
         id="path72" />
      <path
         d="m 102.30911,-27.106115 h 3.93974 l 7.51637,11.147458 7.46189,-11.147458 h 3.93974 l -9.58609,14.197577 V 0 h -3.68556 v -12.908538 z"
         id="path74" />
      <path
         d="m 154.80137,-23.493176 -4.9746,13.489513 h 9.96736 z m -2.06972,-3.612939 h 4.1576 L 167.21971,0 h -3.81265 l -2.46914,-6.9535445 H 148.71929 L 146.25015,0 h -3.86712 z"
         id="path76" />
      <path
         d="m 174.01157,-27.106115 h 4.93829 l 12.01892,22.6761807 V -27.106115 h 3.55847 V 0 h -4.93829 L 177.57004,-22.67618 V 0 h -3.55847 z"
         id="path78" />
      <path
         d="m 208.55524,-24.092307 v 21.0784992 h 4.42993 q 5.61004,0 8.20628,-2.5417656 2.61438,-2.5417656 2.61438,-8.0247176 0,-5.44664 -2.61438,-7.97025 -2.59624,-2.541766 -8.20628,-2.541766 z m -3.6674,-3.013808 h 7.53452 q 7.87947,0 11.56503,3.28614 3.68556,3.267985 3.68556,10.239684 0,7.0080114 -3.70372,10.2941512 Q 220.26552,0 212.42236,0 h -7.53452 z"
         id="path80" />
      <path
         d="m 253.43439,-24.092307 v 10.185218 h 4.61149 q 2.55992,0 3.95789,-1.325349 1.39797,-1.325349 1.39797,-3.776338 0,-2.432832 -1.39797,-3.758182 -1.39797,-1.325349 -3.95789,-1.325349 z m -3.6674,-3.013808 h 8.27889 q 4.55702,0 6.88092,2.069724 2.34206,2.051568 2.34206,6.027615 0,4.012359 -2.34206,6.063927 -2.3239,2.051568 -6.88092,2.051568 h -4.61149 V 0 h -3.6674 z"
         id="path82" />
      <path
         d="m 273.32576,-27.106115 h 3.66741 V 0 h -3.66741 z"
         id="path84" />
      <path
         d="m 289.94751,-24.092307 v 10.185218 h 4.61149 q 2.55992,0 3.95789,-1.325349 1.39798,-1.325349 1.39798,-3.776338 0,-2.432832 -1.39798,-3.758182 -1.39797,-1.325349 -3.95789,-1.325349 z m -3.6674,-3.013808 h 8.27889 q 4.55702,0 6.88092,2.069724 2.34206,2.051568 2.34206,6.027615 0,4.012359 -2.34206,6.063927 -2.3239,2.051568 -6.88092,2.051568 h -4.61149 V 0 h -3.6674 z"
         id="path86" />
      <path
         d="m 313.60666,-24.092307 v 10.185218 h 4.61149 q 2.55992,0 3.95789,-1.325349 1.39797,-1.325349 1.39797,-3.776338 0,-2.432832 -1.39797,-3.758182 -1.39797,-1.325349 -3.95789,-1.325349 z m -3.6674,-3.013808 h 8.27889 q 4.55702,0 6.88092,2.069724 2.34206,2.051568 2.34206,6.027615 0,4.012359 -2.34206,6.063927 -2.3239,2.051568 -6.88092,2.051568 h -4.61149 V 0 h -3.6674 z"
         id="path88" />
      <path
         d="m 340.44937,-23.493176 -4.9746,13.489513 h 9.96735 z m -2.06973,-3.612939 h 4.15761 L 352.86771,0 h -3.81265 l -2.46914,-6.9535445 H 334.36729 L 331.89814,0 h -3.86711 z"
         id="path90" />
      <path
         d="m 392.96648,-3.8671148 v -7.2803432 h -5.99131 v -3.013808 h 9.6224 v 11.6376559 q -2.12419,1.5069039 -4.68411,2.28758901 -2.55992,0.76252968 -5.4648,0.76252968 -6.35441,0 -9.94919,-3.70371559 -3.57663,-3.7218711 -3.57663,-10.348617 0,-6.644902 3.57663,-10.348617 3.59478,-3.721871 9.94919,-3.721871 2.6507,0 5.02907,0.653597 2.39652,0.653596 4.41178,1.924479 v 3.903426 q -2.03341,-1.72477 -4.321,-2.596232 -2.28759,-0.871463 -4.8112,-0.871463 -4.9746,0 -7.48006,2.777787 -2.4873,2.777787 -2.4873,8.278894 0,5.4829514 2.4873,8.2607381 2.50546,2.7777867 7.48006,2.7777867 1.94263,0 3.46769,-0.3267984 1.52506,-0.3449539 2.74148,-1.0530172 z"
         id="path92" />
      <path
         d="m 407.89146,-27.106115 h 3.68556 v 16.46701 q 0,4.3573129 1.57953,6.2817925 1.57953,1.9063242 5.11984,1.9063242 3.52216,0 5.10169,-1.9063242 1.57952,-1.9244796 1.57952,-6.2817925 v -16.46701 h 3.68556 v 16.920897 q 0,5.3013969 -2.63254,8.0065618 -2.61439,2.70516479 -7.73423,2.70516479 -5.138,0 -7.77054,-2.70516479 -2.61439,-2.7051649 -2.61439,-8.0065618 z"
         id="path94" />
      <path
         d="m 435.43358,-27.106115 h 5.4648 l 6.91723,18.4459565 6.95355,-18.4459565 h 5.46479 V 0 h -3.57663 v -23.801819 l -6.98985,18.5911995 h -3.68556 L 438.99205,-23.801819 V 0 h -3.55847 z"
         id="path96" />
      <path
         d="m 477.12744,-12.944849 v 9.9310412 h 5.88238 q 2.95934,0 4.37546,-1.2164164 1.43429,-1.2345719 1.43429,-3.758182 0,-2.5417658 -1.43429,-3.7400268 -1.41612,-1.216416 -4.37546,-1.216416 z m 0,-11.147458 v 8.169961 h 5.42849 q 2.68701,0 3.9942,-0.998551 1.32535,-1.016706 1.32535,-3.086429 0,-2.051568 -1.32535,-3.068275 -1.30719,-1.016706 -3.9942,-1.016706 z m -3.6674,-3.013808 h 9.36822 q 4.19392,0 6.46335,1.742925 2.26943,1.742925 2.26943,4.956443 0,2.487299 -1.16195,3.957892 -1.16195,1.470593 -3.41323,1.833703 2.70517,0.580975 4.19392,2.432833 1.5069,1.833702 1.5069,4.5933331 0,3.6310937 -2.46914,5.6100398 Q 487.74839,0 483.19137,0 h -9.73133 z"
         id="path98" />
      <path
         d="m 498.4652,-27.106115 h 17.13876 v 3.08643 H 502.1326 v 8.024717 h 12.90854 v 3.08643 H 502.1326 v 9.8221083 h 13.79816 V 0 H 498.4652 Z"
         id="path100" />
      <path
         d="m 520.81551,-27.106115 h 3.6674 v 24.0196853 h 13.19903 V 0 h -16.86643 z"
         id="path102" />
    </g>
  </g>
</svg>
