<svg width="339" height="99" viewBox="0 0 339 99" fill="none" xmlns="http://www.w3.org/2000/svg">
<path d="M331.435 0H7.21277C3.22927 0 0 3.22355 0 7.2V91.8C0 95.7765 3.22927 99 7.21277 99H331.435C335.419 99 338.648 95.7765 338.648 91.8V7.2C338.648 3.22355 335.419 0 331.435 0Z" fill="#212121"/>
<path fill-rule="evenodd" clip-rule="evenodd" d="M154.068 52.4241C156.806 52.4241 159.092 53.5034 160.921 55.6645C162.754 57.828 163.669 60.6724 163.669 64.2002C163.669 68.1409 162.602 71.2558 160.468 73.5424C158.557 75.578 156.184 76.5946 153.352 76.5946C150.294 76.5946 148.098 75.4983 146.76 73.3058H146.664V85.5118H141.506V60.5276C141.506 58.0502 141.441 55.5075 141.315 52.8997H145.851L146.139 56.5724H146.235C147.955 53.8052 150.565 52.4241 154.068 52.4241ZM180.768 52.4241C183.504 52.4241 185.79 53.5034 187.623 55.6645C189.449 57.828 190.366 60.6724 190.366 64.2002C190.366 68.1409 189.299 71.2558 187.163 73.5424C185.255 75.578 182.882 76.5946 180.049 76.5946C176.992 76.5946 174.796 75.4983 173.46 73.3058H173.364V85.5118H168.206V60.5276C168.206 58.0502 168.141 55.5075 168.015 52.8997H172.551L172.839 56.5724H172.935C174.653 53.8052 177.263 52.4241 180.768 52.4241ZM75.5015 29.9221L75.8898 29.9401L76.3475 29.9767C76.4291 29.9846 76.5134 29.9935 76.6001 30.0035L77.1488 30.0772L77.7494 30.1815C80.3506 30.6866 84.1249 32.1149 86.8124 36.0263L86.5518 36.1878L86.1596 36.4525L85.8223 36.6979L85.4355 36.9987C85.3674 37.0535 85.2976 37.1106 85.2264 37.17L84.783 37.5546C82.7989 39.3424 80.0882 42.7125 80.1338 47.7711C80.1803 53.2122 82.9538 56.5286 85.2767 58.3544L85.7664 58.723L86.2353 59.0474L86.6766 59.3289C86.7475 59.3724 86.8169 59.4141 86.8847 59.4541L87.2714 59.6739L87.613 59.8544L88.0258 60.0542L88.4065 60.2161L88.3279 60.4923L88.124 61.1187L87.8839 61.7877L87.6803 62.3167L87.4407 62.9045L87.1641 63.5449C87.1149 63.6557 87.064 63.7683 87.0116 63.8828L86.6775 64.5901C86.6185 64.7112 86.5579 64.8338 86.4956 64.9579L86.1016 65.7177C85.5491 66.7503 84.8866 67.8551 84.1032 68.9643L83.311 70.1319L82.7738 70.8957C80.6059 73.9157 78.1849 76.4589 74.6936 76.5149C72.9375 76.5552 71.6807 76.1188 70.4479 75.6069L69.2055 75.0846C67.9358 74.5669 66.5315 74.1075 64.5172 74.1075C62.4843 74.1075 61.053 74.5372 59.7715 75.0411L58.1121 75.7257C57.0122 76.1697 55.8722 76.5474 54.3747 76.609C51.2944 76.722 48.7714 74.2873 46.578 71.4551L46.0131 70.7087C45.9201 70.5833 45.8278 70.4575 45.736 70.3314L44.9246 69.1957C44.836 69.0699 44.7479 68.9444 44.6604 68.8194C39.4089 61.1626 35.3209 47.2423 40.8022 37.7696C43.4582 33.1239 48.3008 30.1322 53.4773 30.0525C55.4886 30.0114 57.4274 30.6893 59.1723 31.3775L60.3056 31.83C61.5911 32.3416 62.7431 32.7641 63.7045 32.7641C64.3831 32.7641 65.2336 32.5021 66.2109 32.1358L68.4829 31.2487C70.5918 30.4411 73.0274 29.6622 75.5015 29.9221ZM251.734 52.4265C255.14 52.4265 257.881 53.5541 259.949 55.8118C261.927 58.0019 262.914 60.8294 262.914 64.2944C262.914 67.856 261.893 70.7801 259.857 73.0668C257.721 75.421 254.886 76.5946 251.352 76.5946C247.946 76.5946 245.234 75.4669 243.212 73.2116C241.19 70.9564 240.179 68.1095 240.179 64.6783C240.179 61.0878 241.219 58.1467 243.307 55.8601C245.389 53.571 248.2 52.4265 251.734 52.4265ZM211.67 43.4658C214.599 43.4658 217.032 43.9753 218.975 44.9918L217.685 49.1884C215.871 48.2033 213.82 47.7107 211.524 47.7107C209.71 47.7107 208.293 48.1574 207.277 49.046C206.418 49.8404 205.988 50.8087 205.988 51.9556C205.988 53.2257 206.479 54.2761 207.465 55.1019C208.324 55.8649 209.884 56.6907 212.148 57.5817C214.918 58.6949 216.952 59.9964 218.261 61.4886C219.565 62.976 220.216 64.8377 220.216 67.0592C220.216 69.7925 219.265 72.0164 217.356 73.7332C215.259 75.6094 212.34 76.5462 208.588 76.5462C205.124 76.5462 202.347 75.8798 200.245 74.5445L201.44 70.2537C203.704 71.6204 206.188 72.3062 208.895 72.3062C210.837 72.3062 212.349 71.8667 213.435 70.9926C214.517 70.1185 215.056 68.945 215.056 67.4817C215.056 66.1778 214.611 65.0792 213.718 64.1882C212.831 63.2972 211.348 62.4689 209.277 61.7035C203.641 59.6052 200.826 56.5314 200.826 52.4893C200.826 49.8476 201.812 47.6817 203.789 45.9963C205.758 44.3085 208.385 43.4658 211.67 43.4658ZM231.582 47.1264V52.8949H237.267V56.7632H231.582V68.0129C231.582 70.8743 232.583 72.3037 234.591 72.3037C235.513 72.3037 236.277 72.2241 236.882 72.0647L237.025 75.974C236.009 76.3531 234.671 76.5438 233.014 76.5438C230.977 76.5438 229.386 75.9233 228.237 74.6846C227.093 73.4434 226.517 71.362 226.517 68.4379V56.7583H223.13V52.8949H226.517V48.6524L231.582 47.1264ZM293.097 52.3806C296.443 52.3806 298.975 53.6193 300.695 56.0967C302.057 58.0646 302.742 60.4986 302.742 63.3889C302.742 64.3113 302.681 65.0888 302.553 65.7239H287.082C287.142 68.0129 287.89 69.7635 289.326 70.9709C290.63 72.0502 292.316 72.5911 294.387 72.5911C296.677 72.5911 298.767 72.2265 300.647 71.4948L301.455 75.0685C299.258 76.0247 296.665 76.5004 293.673 76.5004C290.074 76.5004 287.249 75.4428 285.192 73.33C283.141 71.2172 282.113 68.38 282.113 64.8208C282.113 61.3268 283.069 58.4172 284.982 56.0967C286.985 53.6193 289.692 52.3806 293.097 52.3806ZM126.606 43.9366L137.019 76.0706H131.526L128.517 66.6318H118.058L115.191 76.0706H109.843L120.206 43.9366H126.606ZM278.388 52.4241C278.865 52.4241 279.295 52.4579 279.677 52.5182V57.4272C279.167 57.333 278.623 57.2847 278.052 57.2847C276.238 57.2847 274.835 57.9681 273.848 59.3372C272.989 60.5445 272.558 62.0705 272.558 63.9129V76.0706H267.404L267.452 60.1968C267.452 57.5262 267.387 55.0946 267.259 52.9022H271.751L271.939 57.3354H272.082C272.626 55.8118 273.485 54.5852 274.661 53.6652C275.81 52.837 277.05 52.4241 278.388 52.4241ZM251.55 56.1909C249.477 56.1909 247.902 57.1157 246.821 58.9629C245.895 60.4938 245.438 62.3554 245.438 64.5576C245.438 66.6945 245.895 68.5273 246.821 70.0533C247.936 71.9029 249.494 72.8253 251.504 72.8253C253.473 72.8253 255.019 71.8836 256.134 70.005C257.085 68.4476 257.564 66.5955 257.564 64.461C257.564 62.3241 257.106 60.4914 256.18 58.9629C255.099 57.1133 253.553 56.1909 251.55 56.1909ZM152.396 56.5217C151.124 56.5217 149.968 56.9467 148.935 57.7845C147.9 58.6297 147.222 59.7332 146.906 61.0998C146.746 61.7373 146.666 62.2589 146.666 62.6693V66.5328C146.666 68.2182 147.184 69.6404 148.219 70.8018C149.254 71.9633 150.599 72.5428 152.254 72.5428C154.196 72.5428 155.708 71.7943 156.789 70.302C157.873 68.8073 158.415 66.837 158.415 64.3886C158.415 62.1333 157.907 60.274 156.886 58.8108C155.771 57.2847 154.274 56.5217 152.396 56.5217ZM179.094 56.5217C177.819 56.5217 176.665 56.9467 175.63 57.7845C174.595 58.6297 173.92 59.7332 173.603 61.0998C173.446 61.7373 173.364 62.2589 173.364 62.6693V66.5328C173.364 68.2182 173.881 69.6404 174.912 70.8018C175.947 71.9609 177.292 72.5428 178.951 72.5428C180.894 72.5428 182.406 71.7943 183.487 70.302C184.57 68.8073 185.112 66.837 185.112 64.3886C185.112 62.1333 184.602 60.274 183.581 58.8108C182.466 57.2847 180.973 56.5217 179.094 56.5217ZM123.265 48.2274H123.169C122.852 49.5941 122.341 51.6127 121.64 54.2809L118.967 62.6718H127.61L124.889 54.2809C124.601 53.4237 124.061 51.4051 123.265 48.2274ZM292.713 55.9494C291.027 55.9494 289.655 56.6473 288.608 58.0477C287.749 59.1609 287.239 60.4962 287.082 62.0512H297.824C297.858 60.5276 297.522 59.2092 296.823 58.096C295.93 56.6642 294.559 55.9494 292.713 55.9494ZM201.767 20.8213C204.747 20.8213 206.242 22.3908 206.242 25.5299V29.7217C206.242 30.859 206.297 31.7645 206.406 32.4357H204.13L203.941 31.1246H203.871C203.092 32.1701 201.982 32.6941 200.54 32.6941C199.464 32.6941 198.593 32.3488 197.937 31.663C197.342 31.0401 197.045 30.265 197.045 29.345C197.045 27.9542 197.625 26.8941 198.794 26.1601C199.96 25.426 201.6 25.0663 203.711 25.0832V24.8707C203.711 23.3712 202.923 22.6226 201.343 22.6226C200.218 22.6226 199.227 22.9052 198.37 23.4654L197.855 21.8041C198.915 21.1497 200.223 20.8213 201.767 20.8213ZM134.586 20.8213C136.26 20.8213 137.605 21.3743 138.623 22.4826C139.591 23.5595 140.077 24.9504 140.077 26.6503C140.077 28.4009 139.576 29.8352 138.575 30.9604C137.525 32.117 136.134 32.6941 134.397 32.6941C132.723 32.6941 131.391 32.1411 130.396 31.0304C129.405 29.9221 128.909 28.524 128.909 26.8386C128.909 25.0759 129.419 23.6295 130.445 22.5067C131.47 21.3839 132.849 20.8213 134.586 20.8213ZM188.644 20.8213C190.32 20.8213 191.663 21.3743 192.683 22.4826C193.651 23.5595 194.137 24.9504 194.137 26.6503C194.137 28.4009 193.637 29.8352 192.635 30.9604C191.585 32.117 190.192 32.6941 188.458 32.6941C186.781 32.6941 185.448 32.1411 184.457 31.0304C183.465 29.9221 182.969 28.524 182.969 26.8386C182.969 25.0759 183.48 23.6295 184.505 22.5067C185.531 21.3839 186.91 20.8213 188.644 20.8213ZM237.003 20.8213C238.674 20.8213 240.022 21.3743 241.038 22.4826C242.005 23.5595 242.491 24.9504 242.491 26.6503C242.491 28.4009 241.991 29.8352 240.989 30.9604C239.939 32.117 238.551 32.6941 236.812 32.6941C235.14 32.6941 233.807 32.1411 232.811 31.0304C231.819 29.9221 231.323 28.524 231.323 26.8386C231.323 25.0759 231.834 23.6295 232.859 22.5067C233.885 21.3839 235.264 20.8213 237.003 20.8213ZM220.721 15.8303V29.3691C220.721 30.4774 220.75 31.4988 220.811 32.4357H218.561L218.443 30.6078H218.372C217.654 31.9987 216.43 32.6941 214.71 32.6941C213.336 32.6941 212.192 32.1556 211.285 31.0787C210.378 30.0018 209.925 28.6037 209.925 26.8869C209.925 25.0445 210.417 23.5523 211.403 22.4126C212.359 21.3501 213.53 20.8189 214.923 20.8189C216.454 20.8189 217.526 21.3332 218.135 22.3643H218.184V15.8303H220.721ZM270.389 18.2184V21.0507H273.18V22.9486H270.391V28.4781C270.391 29.8834 270.887 30.5861 271.869 30.5861C272.324 30.5861 272.701 30.5475 272.999 30.4678L273.064 32.3874C272.563 32.5758 271.905 32.6699 271.095 32.6699C270.094 32.6699 269.315 32.3657 268.751 31.7572C268.185 31.1487 267.904 30.1249 267.904 28.6882V22.9486H266.238V21.0531H267.904V18.9669L270.389 18.2184ZM295.703 20.7996C297.343 20.7996 298.588 21.4081 299.43 22.6251C300.11 23.5909 300.446 24.7862 300.446 26.206C300.446 26.6599 300.412 27.0414 300.352 27.3529H292.749C292.783 28.4781 293.146 29.3353 293.85 29.9293C294.493 30.4605 295.323 30.7262 296.339 30.7262C297.464 30.7262 298.489 30.5475 299.413 30.1877L299.81 31.9455C298.729 32.414 297.456 32.6482 295.983 32.6482C294.217 32.6482 292.827 32.1291 291.82 31.0908C290.809 30.0525 290.308 28.6592 290.308 26.911C290.308 25.1942 290.775 23.7648 291.716 22.6251C292.698 21.4081 294.026 20.7996 295.703 20.7996ZM117.271 16.5305C120.041 16.5305 122.129 17.1318 123.536 18.3343C125.114 19.6937 125.904 21.6375 125.904 24.168C125.904 27.01 125.051 29.1494 123.345 30.5861C121.766 31.9117 119.521 32.5758 116.613 32.5758C115.172 32.5758 113.938 32.513 112.905 32.3874V16.8589C114.253 16.6416 115.704 16.5305 117.271 16.5305ZM145.164 21.0531L146.453 26.4643C146.765 27.7441 147.022 28.9635 147.227 30.1177H147.273C147.462 29.1663 147.774 27.9542 148.214 26.4885L149.832 21.0555H151.898L153.449 26.3726C153.824 27.6692 154.128 28.9176 154.363 30.1201H154.433C154.605 28.949 154.864 27.7006 155.207 26.3726L156.591 21.0555H159.08V21.0531L155.512 32.4357H153.19L151.712 27.493C151.337 26.2591 151.032 25.0325 150.795 23.8155H150.749C150.529 25.0663 150.224 26.2905 149.832 27.493L148.263 32.4357H145.914L142.559 21.0531H145.164ZM168.255 20.8141C169.319 20.8141 170.204 21.157 170.908 21.8451C171.784 22.6878 172.222 23.9459 172.222 25.6168V32.4357H169.687V25.9162C169.687 23.9072 168.922 22.9027 167.389 22.9027C166.637 22.9027 166.029 23.178 165.558 23.731C165.091 24.2839 164.854 24.9359 164.854 25.682V32.4333H162.319V24.3056C162.319 23.306 162.287 22.2218 162.227 21.0483H164.455L164.573 22.8279H164.643C164.939 22.2749 165.379 21.8186 165.957 21.454C166.644 21.029 167.413 20.8141 168.255 20.8141ZM179.213 15.8303V32.4357H176.68V15.8303H179.213ZM252.157 20.8141C253.219 20.8141 254.105 21.157 254.808 21.8451C255.687 22.6878 256.122 23.9459 256.122 25.6168V32.4357H253.589V25.9162C253.589 23.9072 252.825 22.9027 251.289 22.9027C250.537 22.9027 249.93 23.178 249.46 23.731C248.991 24.2839 248.756 24.9359 248.756 25.682V32.4333H246.219V24.3056C246.219 23.306 246.19 22.2218 246.129 21.0483H248.355L248.473 22.8279H248.544C248.841 22.2749 249.281 21.8186 249.857 21.454C250.546 21.029 251.313 20.8141 252.157 20.8141ZM279.232 15.8303V22.6903H279.281C280.079 21.4419 281.223 20.8189 282.706 20.8189C283.756 20.8189 284.624 21.1618 285.313 21.85C286.172 22.7072 286.603 23.9821 286.603 25.6675V32.4357H284.065V25.9645C284.065 23.9241 283.301 22.9027 281.77 22.9027C280.594 22.9027 279.791 23.4943 279.351 24.6775C279.276 24.9262 279.232 25.2304 279.232 25.5878V32.4333H276.7V15.8303H279.232ZM134.494 22.6685C133.476 22.6685 132.702 23.1225 132.169 24.0304C131.715 24.7813 131.49 25.6965 131.49 26.7782C131.49 27.8286 131.717 28.7293 132.169 29.4802C132.719 30.3881 133.483 30.8421 134.47 30.8421C135.437 30.8421 136.197 30.3809 136.744 29.4561C137.213 28.6906 137.448 27.7827 137.448 26.7324C137.448 25.682 137.22 24.7813 136.768 24.0304C136.236 23.1225 135.479 22.6685 134.494 22.6685ZM188.554 22.6685C187.534 22.6685 186.76 23.1225 186.23 24.0304C185.775 24.7813 185.55 25.6965 185.55 26.7782C185.55 27.8286 185.777 28.7293 186.23 29.4802C186.779 30.3881 187.543 30.8421 188.53 30.8421C189.498 30.8421 190.255 30.3809 190.802 29.4561C191.273 28.6906 191.505 27.7827 191.505 26.7324C191.505 25.682 191.278 24.7813 190.826 24.0304C190.296 23.1225 189.536 22.6685 188.554 22.6685ZM199.58 29.0625C199.58 29.6565 199.739 30.1008 200.066 30.3978C200.393 30.6948 200.809 30.8421 201.304 30.8421C201.861 30.8421 202.381 30.6658 202.855 30.3157C203.332 29.9631 203.624 29.5164 203.733 28.9683C203.76 28.8452 203.774 28.6954 203.774 28.524V26.7686C200.978 26.7203 199.58 27.4857 199.58 29.0625ZM236.909 22.6685C235.893 22.6685 235.118 23.1225 234.584 24.0304C234.129 24.7813 233.904 25.6965 233.904 26.7782C233.904 27.8286 234.132 28.7293 234.584 29.4802C235.133 30.3881 235.897 30.8421 236.884 30.8421C237.852 30.8421 238.614 30.3809 239.161 29.4561C239.627 28.6906 239.864 27.7827 239.864 26.7324C239.864 25.682 239.637 24.7813 239.185 24.0304C238.65 23.1225 237.895 22.6685 236.909 22.6685ZM215.501 22.7868C214.555 22.7868 213.815 23.1611 213.271 23.9121C212.731 24.663 212.458 25.6216 212.458 26.7927C212.458 27.9179 212.717 28.8307 213.237 29.5333C213.786 30.2819 214.526 30.6561 215.453 30.6561C216.285 30.6561 216.95 30.3446 217.456 29.7193C217.944 29.1422 218.184 28.4467 218.184 27.6354V25.7375C218.184 25.4091 218.159 25.1435 218.114 24.9407C217.971 24.3322 217.664 23.8203 217.197 23.4074C216.725 22.9945 216.157 22.7868 215.501 22.7868ZM117.482 18.5226C116.684 18.5226 116.004 18.5757 115.44 18.6868V30.4919C115.752 30.5402 116.323 30.562 117.153 30.562C119.093 30.562 120.59 30.0235 121.645 28.9466C122.699 27.8696 123.232 26.3001 123.232 24.238C123.232 22.3957 122.743 20.9831 121.766 19.9979C120.788 19.0152 119.361 18.5226 117.482 18.5226ZM75.5523 15.0117C75.9539 18.6554 74.5074 22.246 72.3932 24.8852C70.1872 27.4833 66.658 29.4705 63.2207 29.2146C62.7708 25.7085 64.5124 21.9804 66.4621 19.7058C68.6657 17.1245 72.4924 15.1469 75.5523 15.0117ZM295.519 22.5526C294.692 22.5526 294.017 22.8955 293.501 23.5837C293.081 24.1318 292.831 24.7862 292.749 25.5516H298.027C298.047 24.8006 297.88 24.1535 297.536 23.6078C297.096 22.9052 296.426 22.5526 295.519 22.5526Z" fill="white"/>
</svg>
