<svg width="339" height="99" viewBox="0 0 339 99" fill="none" xmlns="http://www.w3.org/2000/svg">
<path d="M331.435 0H7.21277C3.22927 0 0 3.22355 0 7.2V91.8C0 95.7765 3.22927 99 7.21277 99H331.435C335.419 99 338.648 95.7765 338.648 91.8V7.2C338.648 3.22355 335.419 0 331.435 0Z" fill="#212121"/>
<path fill-rule="evenodd" clip-rule="evenodd" d="M183.539 55.0444C185.999 55.0444 187.944 56.1239 188.962 57.3171H189.112V55.6664H193.411V73.9792C193.411 81.5067 188.926 84.6 183.609 84.6C178.614 84.6 175.603 81.2719 174.466 78.5683L178.408 76.9418C179.12 78.6046 180.84 80.5845 183.609 80.5845C187.008 80.5845 189.112 78.4885 189.112 74.5892V73.1248H188.962C187.941 74.3544 185.999 75.4436 183.539 75.4436C178.375 75.4436 173.653 70.9949 173.653 65.2779C173.653 59.5294 178.375 55.0444 183.539 55.0444ZM285.511 55.6422L290.883 68.6374H291.038L296.236 55.6422H301.265L288.822 83.9053H284.1L288.706 73.8001L280.634 55.6422H285.511ZM55.0113 51.8721L63.799 60.6492L26.7332 80.9435C26.4533 81.0966 26.1835 81.2205 25.9251 81.3178L55.0113 51.8721ZM23.2665 20.1655L53.7419 50.604L23.4129 81.3081C22.5278 80.7468 22.0533 79.5281 22.0453 77.9542C22.0304 75.0052 21.7994 29.1805 21.7719 23.7663L21.7703 23.458C21.762 21.7348 22.3887 20.6832 23.2665 20.1655ZM161.399 55.0444C167.105 55.0444 171.759 59.3309 171.759 65.2464C171.759 71.1111 167.107 75.4436 161.399 75.4436C155.705 75.4436 151.051 71.1111 151.051 65.2464C151.051 59.3309 155.705 55.0444 161.399 55.0444ZM138.821 55.0444C144.524 55.0444 149.169 59.3309 149.169 65.2464C149.169 71.1111 144.527 75.4436 138.821 75.4436C133.114 75.4436 128.475 71.1111 128.475 65.2464C128.475 59.3309 133.114 55.0444 138.821 55.0444ZM212.982 55.0444C218.333 55.0444 220.962 59.251 221.813 61.5311L222.288 62.6929L208.495 68.3373C209.55 70.3849 211.197 71.4257 213.49 71.4257C215.8 71.4257 217.396 70.3002 218.57 68.6059L222.087 70.9223C220.162 73.7782 216.932 75.4765 213.49 75.4436C207.631 75.4436 203.26 70.9586 203.26 65.2464C203.26 59.1784 207.677 55.0444 212.982 55.0444ZM111.956 43.7604C116.835 43.7604 120.316 45.658 122.931 48.1268L119.842 51.1814C117.972 49.4363 115.439 48.0905 111.956 48.0905C108.902 48.0736 105.968 49.2816 103.81 51.4447C101.651 53.6078 100.449 56.5456 100.471 59.602C100.45 62.658 101.652 65.5952 103.81 67.7577C105.968 69.9203 108.902 71.128 111.956 71.1111C116.136 71.1111 118.514 69.4482 120.043 67.95C121.298 66.7083 122.116 64.9269 122.42 62.5041H111.956V58.1715H126.685C126.837 58.9461 126.922 59.8707 126.922 60.8776C126.922 64.1209 126.022 68.1388 123.132 70.9949C120.316 73.8945 116.729 75.4436 111.956 75.4436C103.125 75.4436 95.7011 68.3373 95.7011 59.602C95.7011 50.8667 103.125 43.7604 111.956 43.7604ZM271.113 54.9863C276.309 54.9863 280.324 57.9585 280.324 63.2762V74.7731H275.956V72.4544H275.801C274.746 74.0349 273.068 75.3928 270.027 75.3928C266.046 75.3928 262.504 72.8078 262.504 68.7899C262.504 64.3968 266.909 62.0442 271.232 62.0442C273.387 62.0442 275.138 62.7364 275.956 63.206V62.8913C275.92 60.4298 273.542 59.0356 271.195 59.0356C269.517 59.0356 267.928 59.5754 267.064 61.2382L263.051 59.5754C264.449 56.4143 267.848 54.9863 271.113 54.9863ZM201.074 44.8472V74.8215H196.538V44.8472H201.074ZM260.008 44.8472V74.8191H255.473V44.8472H260.008ZM243.042 44.8448C248.051 44.8448 252.988 48.4415 252.988 54.1537C252.988 59.8683 248.063 63.4626 243.042 63.4626H236.719V74.8191H232.195V44.8448H243.042ZM183.926 59.0598C180.803 59.0598 178.186 61.6836 178.186 65.2803C178.186 68.8383 180.803 71.4281 183.926 71.4281C187.005 71.4281 189.434 68.8383 189.434 65.2803C189.434 61.6836 187.005 59.0598 183.926 59.0598ZM161.399 59.0623C158.273 59.0623 155.586 61.5674 155.586 65.2464C155.586 68.8746 158.273 71.4257 161.399 71.4257C164.524 71.4257 167.223 68.877 167.223 65.2464C167.223 61.5674 164.524 59.0623 161.399 59.0623ZM138.821 59.0623C135.693 59.0623 132.996 61.5674 132.996 65.2464C132.996 68.8746 135.693 71.4257 138.821 71.4257C141.946 71.4257 144.636 68.877 144.636 65.2464C144.636 61.5674 141.946 59.0623 138.821 59.0623ZM271.822 65.6627C269.597 65.6627 267.028 66.5534 267.028 68.8722C267.028 70.6851 269.089 71.4112 270.567 71.4112C273.186 71.4136 275.603 69.4458 275.958 66.6696C274.749 66.0984 273.813 65.6627 271.822 65.6627ZM213.134 58.98C210.839 58.98 207.631 60.9962 207.75 64.9269L216.973 61.1462C216.463 59.8707 214.936 58.98 213.134 58.98ZM65.43 41.3248L78.0416 48.206C81.1484 49.9005 79.5593 52.0206 78.0416 52.8517L65.4393 59.7516L56.2719 50.5955L65.43 41.3248ZM243.16 49.0151H236.719V59.2946H243.16C246.535 59.2922 248.463 56.4724 248.463 54.1537C248.412 51.2715 246.041 48.9733 243.16 49.0151ZM25.4401 19.8C25.8879 19.8588 26.3374 19.9903 26.7332 20.2069L63.7914 40.4306L55.0024 49.3278L25.4401 19.8ZM169.342 18C171.447 18 173.225 18.7261 174.659 20.1905C176.101 21.6524 176.812 23.4217 176.812 25.5154C176.812 27.6235 176.101 29.405 174.671 30.8548C173.237 32.307 171.461 33.0332 169.342 33.0332C167.214 33.0332 165.436 32.307 164.001 30.8548C162.572 29.4026 161.858 27.6235 161.858 25.5178C161.858 23.4096 162.572 21.6282 164.001 20.1784C165.436 18.7261 167.211 18 169.342 18ZM104.012 18C105.053 18 106.049 18.213 106.997 18.6075C107.941 19.0069 108.715 19.5466 109.271 20.2123L108.004 21.4757C107.031 20.3381 105.706 19.7814 104.012 19.7814C102.484 19.7814 101.158 20.3066 100.036 21.3716C98.9231 22.4366 98.3668 23.8211 98.3668 25.5178C98.3668 27.2121 98.9231 28.6062 100.036 29.6736C101.101 30.707 102.529 31.2792 104.012 31.2663C105.633 31.2663 106.997 30.7265 108.074 29.6615C108.783 28.9596 109.187 27.9866 109.291 26.7449H104.012V25.0143H111.056C111.141 25.3871 111.165 25.7502 111.165 26.1011C111.165 28.1028 110.56 29.7075 109.366 30.9032C107.992 32.3216 106.204 33.0332 104.012 33.0332C101.918 33.0332 100.13 32.307 98.6619 30.879C97.1936 29.4268 96.4607 27.6478 96.4607 25.5178C96.4607 23.3878 97.1936 21.604 98.6619 20.1663C100.13 18.7237 101.918 18 104.012 18ZM181.715 18.3268L188.783 29.5091H188.863L188.783 26.7449V18.3292H190.653V32.7064H188.701L181.299 20.9723H181.217L181.299 23.7485V32.704H179.441V18.3268H181.715ZM122.343 18.3292V20.0961L122.341 20.0937H115.722V24.6513H121.687V26.3819H115.725V30.9395H122.343V32.7064H113.853V18.3292H122.343ZM155.753 18.3268V20.0937H151.68V32.704H149.819V20.0937H145.746V18.3268H155.753ZM143.39 18.3268V32.704H141.52V18.3268H143.39ZM134.285 18.3268V20.0937H130.226V32.704H128.354V20.0937H124.295V18.3268H134.285ZM169.342 19.7669C167.777 19.7669 166.464 20.3067 165.387 21.3837C164.311 22.4584 163.767 23.8404 163.767 25.5178C163.767 27.1927 164.311 28.5748 165.387 29.6494C166.466 30.7265 167.777 31.2663 169.342 31.2663C170.895 31.2663 172.221 30.7265 173.285 29.6494C174.362 28.5748 174.906 27.1927 174.906 25.5178C174.906 23.8404 174.362 22.4584 173.285 21.3837C172.251 20.322 170.824 19.7367 169.342 19.7669Z" fill="white"/>
</svg>
