<svg width="24" height="24" viewBox="0 0 24 24" fill="none" xmlns="http://www.w3.org/2000/svg">
<path fill-rule="evenodd" clip-rule="evenodd" d="M23.528 20.8C23.296 21.392 22.76 22.224 21.992 22.816C21.552 23.152 21.024 23.48 20.304 23.696C19.536 23.928 18.584 24 17.4 24H6.6C5.416 24 4.472 23.92 3.696 23.696C2.976 23.48 2.448 23.16 2.008 22.816C1.248 22.232 0.704 21.392 0.472 20.8C0.00799999 19.608 0 18.256 0 17.4V6.6C0 5.744 0.00799999 4.392 0.472 3.2C0.704 2.608 1.24 1.776 2.008 1.184C2.448 0.848 2.976 0.52 3.696 0.304C4.472 0.08 5.416 0 6.6 0H17.4C18.584 0 19.528 0.08 20.304 0.304C21.024 0.52 21.552 0.84 21.992 1.184C22.752 1.768 23.296 2.608 23.528 3.2C24 4.392 24 5.752 24 6.6V17.4C24 18.256 23.992 19.608 23.528 20.8ZM14.056 14.488C14.024 14.2 13.928 13.992 13.736 13.8C13.376 13.424 12.744 13.176 12 13.176C11.256 13.176 10.624 13.416 10.264 13.8C10.08 14 9.976 14.2 9.944 14.488C9.88023 15.0459 9.9197 15.5245 9.98328 16.2954L9.984 16.304C10.048 17.04 10.168 18.024 10.32 19.016C10.432 19.728 10.52 20.112 10.6 20.384C10.736 20.832 11.224 21.216 12 21.216C12.776 21.216 13.272 20.824 13.4 20.384C13.48 20.112 13.568 19.728 13.68 19.016C13.832 18.016 13.952 17.04 14.016 16.304C14.088 15.528 14.12 15.048 14.056 14.488ZM12 12.376C13.088 12.376 13.968 11.496 13.968 10.408C13.968 9.32798 13.088 8.43998 12 8.43998C10.912 8.43998 10.032 9.31998 10.032 10.408C10.032 11.496 10.912 12.376 12 12.376ZM11.976 2.656C7.384 2.672 3.624 6.4 3.56 10.992C3.512 14.712 5.888 17.896 9.208 19.064C9.288 19.096 9.368 19.024 9.36 18.944C9.34666 18.848 9.33244 18.752 9.31822 18.656C9.28978 18.464 9.26133 18.272 9.24 18.08C9.224 17.976 9.16 17.896 9.072 17.848C6.448 16.704 4.616 14.072 4.648 11.024C4.688 7.024 7.952 3.768 11.944 3.736C16.032 3.704 19.368 7.016 19.368 11.096C19.368 14.112 17.544 16.704 14.944 17.848C14.848 17.888 14.784 17.976 14.776 18.08L14.656 18.944C14.64 19.032 14.728 19.096 14.808 19.064C18.096 17.912 20.456 14.776 20.456 11.096C20.44 6.44 16.64 2.648 11.976 2.656ZM6.352 11.032C6.392 8.04001 8.792 5.56801 11.784 5.45601C15 5.32801 17.664 7.91201 17.656 11.096C17.656 13.032 16.672 14.752 15.184 15.768C15.104 15.824 15 15.76 15.008 15.672C15.024 15.328 15.032 15.024 15.016 14.712C15.016 14.608 15.056 14.512 15.128 14.44C16.016 13.6 16.576 12.416 16.576 11.104C16.576 8.52801 14.432 6.43201 11.824 6.53601C9.424 6.63201 7.496 8.58401 7.432 10.984C7.4 12.344 7.96 13.576 8.88 14.44C8.96 14.512 9 14.608 8.992 14.712C8.976 15.032 8.976 15.336 9 15.68C9 15.768 8.896 15.824 8.824 15.776C7.312 14.744 6.328 13 6.352 11.032Z" fill="currentColor"/>
</svg>
