<svg width="200" height="109" viewBox="0 0 200 109" fill="none" xmlns="http://www.w3.org/2000/svg">
<path fill-rule="evenodd" clip-rule="evenodd" d="M30.3062 17.2V0H40V3.85838H34.6788V6.53135H39.8381V10.3897H34.6788V13.3416H40V17.2H30.3062ZM21.8789 76.3199H14.4002V65.5199H21.9586C25.4593 65.5199 28.9601 66.4 28.9601 70.6401C28.9601 75.0397 25.6184 76.3199 21.8789 76.3199ZM14.4002 43.68H20.2085C23.3111 43.68 26.0956 44.3999 26.0956 48.1601C26.0956 51.92 23.3908 52.88 20.1288 52.88H14.4002V43.68ZM33.654 57.8399C38.0298 55.3599 40.4961 50.96 40.4961 45.9199C40.4961 42.2402 39.4617 38.88 36.9954 36.16C31.9036 30.4798 25.2203 30.4 18.14 30.4H0V89.5999H18.6966L19.0391 89.6C26.5016 89.6011 31.9944 89.602 37.9501 84.4797C41.6099 81.36 43.3603 76.3199 43.3603 71.5997C43.3603 64.8801 40.098 60.0798 33.654 57.8399ZM67.0266 89.6H67.1211V30.4H52.0846V89.6H52.1084L59.5673 86.1287L67.0266 89.6ZM92.3571 76.3199H99.8358C103.575 76.3199 106.917 75.0397 106.917 70.6401C106.917 66.4 103.416 65.5199 99.9155 65.5199H92.3571V76.3199ZM98.1652 43.68H92.3571V52.88H98.0855C101.348 52.88 104.053 51.92 104.053 48.1601C104.053 44.3999 101.268 43.68 98.1652 43.68ZM118.453 45.9199C118.453 50.96 115.986 55.3599 111.611 57.8399C118.055 60.0798 121.317 64.8801 121.317 71.5997C121.317 76.3199 119.567 81.36 115.907 84.4797C109.951 89.602 104.458 89.6011 96.9957 89.6L96.6532 89.5999H77.9566V30.4H96.0966C103.177 30.4 109.86 30.4798 114.952 36.16C117.419 38.88 118.453 42.2402 118.453 45.9199ZM144.778 30.4H129.741V89.6H162.201V76.32H144.778V30.4ZM200 30.4V43.68H181.701V52.88H199.443V66.16H181.701V76.32H200V89.6H167.301V30.4H200ZM12.864 17.2H17.2367V10.32H22.8355V17.2H27.2082V0H22.8355V6.46162H17.2367V0H12.864V17.2ZM3.37781 17.2V3.85838H0V0H11.1051V3.85838H7.75046V17.2H3.37781ZM195.621 100.16V108.64H200V107.448H196.984V100.16H195.621ZM188.538 108.64V100.16H193.321V101.352H189.901V103.758H193.275V104.939H189.901V107.448H193.321V108.64H188.538ZM180.778 100.16V108.64H183.285C184.336 108.64 184.845 108.559 185.445 108.147C186.104 107.757 186.474 107.047 186.485 106.21C186.485 105.832 186.404 104.583 184.926 104.114C185.538 103.793 186.012 103.231 186.012 102.337C186.012 101.661 185.769 100.997 185.145 100.619C184.729 100.321 184.14 100.16 183.331 100.16H180.778ZM182.141 103.678V101.352H183.227C183.655 101.352 183.92 101.398 184.128 101.501C184.429 101.639 184.706 101.982 184.706 102.498C184.706 102.945 184.556 103.311 184.128 103.541C183.886 103.655 183.574 103.678 183.262 103.678H182.141ZM182.141 107.448V104.812H183.4C183.816 104.812 184.094 104.824 184.429 104.961C184.868 105.145 185.18 105.546 185.18 106.13C185.168 106.772 184.845 107.127 184.429 107.31C184.14 107.425 183.793 107.448 183.516 107.448H182.141ZM170.543 108.64H169.272V100.16H171.144L173.801 106.726L176.424 100.16H178.284V108.64H177.025L177.059 101.49L174.229 108.64H173.339L170.508 101.49L170.543 108.64ZM162.198 100.16H160.835V105.454C160.824 106.485 160.928 107.322 161.771 108.067C162.349 108.628 163.227 108.8 163.839 108.8C164.682 108.8 165.364 108.514 165.872 108.055C166.623 107.436 166.808 106.577 166.797 105.454V100.16H165.445V105.454C165.445 106.004 165.445 106.474 165.122 106.955C164.89 107.345 164.417 107.608 163.827 107.608C163.238 107.608 162.765 107.333 162.51 106.932C162.198 106.44 162.198 105.981 162.198 105.454V100.16ZM158.368 102.567H156.832C156.612 102.257 156.346 101.982 156.046 101.765C155.549 101.409 154.948 101.192 154.244 101.192C152.626 101.192 151.113 102.406 151.113 104.377C151.113 106.417 152.638 107.608 154.244 107.608C155.029 107.608 155.711 107.368 156.219 106.978C156.739 106.588 157.097 106.05 157.224 105.466H153.539V104.366H158.807C158.807 104.904 158.715 105.637 158.426 106.268C157.64 107.952 155.873 108.8 154.255 108.8C151.725 108.8 149.761 106.863 149.761 104.377C149.761 101.845 151.783 99.9999 154.267 99.9999C156.104 99.9999 157.756 101.1 158.368 102.567ZM137.416 108.64L138.201 106.634H141.852L142.661 108.64H144.14L140.685 100.16H139.449L135.937 108.64H137.416ZM140.015 101.73L141.483 105.546H138.571L140.015 101.73ZM130.066 100.16H132.504C133.833 100.16 134.399 100.332 134.907 100.733C135.508 101.192 135.854 102.005 135.854 102.819C135.854 103.632 135.496 104.48 134.965 104.904C134.387 105.351 133.809 105.534 132.631 105.534H131.429V108.64H130.066V100.16ZM131.429 101.352V104.343H132.608C133.151 104.343 133.567 104.285 133.937 104.056C134.283 103.861 134.549 103.415 134.549 102.842C134.549 102.269 134.283 101.833 133.925 101.627C133.544 101.398 133.128 101.352 132.562 101.352H131.429ZM124.958 100.16H122.521V108.64H123.884V105.534H125.086C126.264 105.534 126.842 105.351 127.419 104.904C127.951 104.48 128.309 103.632 128.309 102.819C128.309 102.005 127.962 101.192 127.362 100.733C126.853 100.332 126.287 100.16 124.958 100.16ZM123.884 104.343V101.352H125.016C125.582 101.352 125.998 101.398 126.38 101.627C126.738 101.833 127.003 102.269 127.003 102.842C127.003 103.415 126.738 103.861 126.391 104.056C126.021 104.285 125.605 104.343 125.062 104.343H123.884ZM118.711 108.64V100.16H120.074V108.64H118.711ZM113.557 100.16H111.119V108.64H112.483V105.534H113.684C114.863 105.534 115.44 105.351 116.018 104.904C116.549 104.48 116.908 103.632 116.908 102.819C116.908 102.005 116.561 101.192 115.96 100.733C115.452 100.332 114.886 100.16 113.557 100.16ZM112.483 104.343V101.352H113.615C114.181 101.352 114.597 101.398 114.978 101.627C115.336 101.833 115.602 102.269 115.602 102.842C115.602 103.415 115.336 103.861 114.99 104.056C114.62 104.285 114.204 104.343 113.661 104.343H112.483ZM97.7107 108.64V100.16H100.356C101.5 100.16 102.921 100.332 103.869 101.535C104.516 102.303 104.805 103.277 104.805 104.389C104.805 106.864 103.453 108.64 100.449 108.64H97.7107ZM99.074 101.352V107.448H100.518C102.529 107.448 103.453 106.176 103.453 104.411C103.453 103.598 103.233 102.819 102.76 102.246C102.309 101.73 101.627 101.352 100.53 101.352H99.074ZM93.9212 106.611L89.4846 100.16H88.2021V108.64H89.5192L89.4961 102.177L93.9674 108.64H95.2152V100.16H93.8981L93.9212 106.611ZM80.5122 106.634L79.7266 108.64H78.2477L81.76 100.16H82.9963L86.4508 108.64H84.9719L84.1632 106.634H80.5122ZM83.7934 105.546L82.3261 101.73L80.882 105.546H83.7934ZM69.3813 105.626V108.64H70.7446V105.626L73.425 100.16H71.9462L70.0629 104.354L68.1797 100.16H66.7008L69.3813 105.626ZM59.4696 108.64V100.16H60.8329V104.171L63.9639 100.16H65.4081L62.0807 104.389L65.7432 108.64H64.0679L60.8329 104.732V108.64H59.4696ZM57.2104 106.061H55.7777C55.5928 106.371 54.7957 107.608 53.1435 107.608C51.3411 107.608 50.0471 106.153 50.0471 104.388C50.0471 102.67 51.318 101.192 53.1319 101.192C54.6339 101.203 55.5004 102.234 55.7777 102.784H57.2219C56.806 101.616 55.4426 100.011 53.1435 99.9999C50.4977 99.9999 48.6838 102.062 48.6838 104.388C48.6838 106.795 50.5786 108.8 53.155 108.8C55.096 108.8 56.6789 107.608 57.2104 106.061ZM45.1976 108.64V100.16H46.5609V108.64H45.1976ZM41.408 106.611L36.9714 100.16H35.6889V108.64H37.0061L36.983 102.177L41.4542 108.64H42.702V100.16H41.3849L41.408 106.611ZM23.8908 108.64H22.5275V100.16H23.8908V103.735H27.5764V100.16H28.9397V108.64H27.5764V104.927H23.8908V108.64ZM17.4482 101.352V108.64H18.8115V101.352H20.7756V100.16H15.4841V101.352H17.4482ZM12.356 108.64V100.16H13.7194V108.64H12.356ZM0 100.16L2.31072 108.64H3.60472L5.25689 102.211L6.90905 108.64H8.16839L10.5253 100.16H9.13889L7.47518 106.806L5.7768 100.16H4.74853L3.07326 106.795L1.38643 100.16H0Z" fill="currentColor"/>
</svg>
