<svg width="23" height="18" viewBox="0 0 23 18" fill="none" xmlns="http://www.w3.org/2000/svg">
<path fill-rule="evenodd" clip-rule="evenodd" d="M0.500132 2.98284C0.499974 2.9926 0.499958 3.00235 0.500084 3.0121V15C0.500084 16.6523 1.8478 18 3.50008 18H19.5001C21.1524 18 22.5001 16.6523 22.5001 15V3.01237C22.5002 3.00242 22.5002 2.99247 22.5 2.98251C22.4906 1.33822 21.1465 0 19.5001 0H3.50008C1.85352 0 0.509427 1.33839 0.500132 2.98284ZM2.60666 2.55395C2.77204 2.22692 3.11212 2 3.50008 2H19.5001C19.888 2 20.2281 2.22692 20.3935 2.55395L11.5001 8.77935L2.60666 2.55395ZM20.5001 4.92066V15C20.5001 15.5477 20.0478 16 19.5001 16H3.50008C2.95237 16 2.50008 15.5477 2.50008 15V4.92066L10.9266 10.8192C11.2709 11.0603 11.7292 11.0603 12.0735 10.8192L20.5001 4.92066Z" fill="white"/>
</svg>
