<svg width="24" height="24" viewBox="0 0 24 24" fill="none" xmlns="http://www.w3.org/2000/svg">
<path fill-rule="evenodd" clip-rule="evenodd" d="M10.2613 3.59464C11.2823 2.57361 12.6672 2 14.1111 2H16.7778C17.3301 2 17.7778 2.44772 17.7778 3V6.55556C17.7778 7.10784 17.3301 7.55556 16.7778 7.55556H14.2222V9.11111H16.7778C17.0857 9.11111 17.3765 9.25298 17.566 9.4957C17.7555 9.73841 17.8226 10.0549 17.7479 10.3536L16.859 13.9092C16.7477 14.3544 16.3478 14.6667 15.8889 14.6667H14.2222V20.7778C14.2222 21.3301 13.7745 21.7778 13.2222 21.7778H9.66667C9.11438 21.7778 8.66667 21.3301 8.66667 20.7778V14.6667H7C6.44772 14.6667 6 14.219 6 13.6667V10.1111C6 9.55883 6.44772 9.11111 7 9.11111H8.66667V7.44444C8.66667 6.00049 9.24028 4.61567 10.2613 3.59464ZM14.1111 4C13.1976 4 12.3215 4.3629 11.6755 5.00885C11.0296 5.65481 10.6667 6.53092 10.6667 7.44444V10.1111C10.6667 10.6634 10.219 11.1111 9.66667 11.1111H8V12.6667H9.66667C10.219 12.6667 10.6667 13.1144 10.6667 13.6667V19.7778H12.2222V13.6667C12.2222 13.1144 12.6699 12.6667 13.2222 12.6667H15.1081L15.497 11.1111H13.2222C12.6699 11.1111 12.2222 10.6634 12.2222 10.1111V7.44444C12.2222 6.94348 12.4212 6.46303 12.7755 6.1088C13.1297 5.75456 13.6101 5.55556 14.1111 5.55556H15.7778V4H14.1111Z" fill="currentColor"/>
</svg>
