<svg width="24" height="24" viewBox="0 0 24 24" fill="none" xmlns="http://www.w3.org/2000/svg">
<path d="M3 11.1816V12.818C3 13.6465 2.32842 14.318 1.5 14.318C0.671578 14.318 0 13.6465 0 12.818V11.1816C0 10.3532 0.671578 9.68164 1.5 9.68164C2.32842 9.68164 3 10.3532 3 11.1816Z" fill="currentColor"/>
<path d="M21.0006 11.2243C21.0002 11.2101 21 11.1959 21 11.1816C21 10.3532 21.6716 9.68164 22.5 9.68164C23.3284 9.68164 24 10.3532 24 11.1816C24 11.1959 23.9998 11.2101 23.9994 11.2243H24V12.8607H23.9994C23.9769 13.6693 23.3142 14.318 22.5 14.318C21.6858 14.318 21.0232 13.6693 21.0006 12.8607H21V11.2242H21.0006V11.2243Z" fill="currentColor"/>
<path d="M8.18164 16.0907V17.727C8.18164 18.5554 7.51011 19.227 6.68164 19.227C5.85317 19.227 5.18164 18.5554 5.18164 17.727V16.0906C5.18164 15.2622 5.85322 14.5906 6.68164 14.5906C7.51006 14.5906 8.18164 15.2622 8.18164 16.0906V16.0907ZM8.18164 6.27246V11.6247H8.18127C8.16317 12.4374 7.49867 13.0907 6.68164 13.0907C5.86461 13.0907 5.20016 12.4374 5.18206 11.6247H5.18164V6.27246C5.18164 5.44404 5.85322 4.77246 6.68164 4.77246C7.51006 4.77246 8.18164 5.44404 8.18164 6.27246V6.27246Z" fill="currentColor"/>
<path d="M15.8184 7.90882C15.8184 8.73725 16.4899 9.40882 17.3184 9.40882C18.1468 9.40882 18.8184 8.73725 18.8184 7.90882V6.27246C18.8184 5.44404 18.1468 4.77246 17.3184 4.77246C16.4899 4.77246 15.8184 5.44404 15.8184 6.27246V7.90882Z" fill="currentColor"/>
<path d="M10.5 3.13641C10.5 3.96478 11.1716 4.63641 12 4.63641C12.8284 4.63641 13.5 3.96478 13.5 3.13641V1.5C13.5 0.671578 12.8284 0 12 0C11.1716 0 10.5 0.671578 10.5 1.5V3.13641ZM10.5 20.8636C10.5 20.0352 11.1716 19.3636 12 19.3636C12.8284 19.3636 13.5 20.0352 13.5 20.8636V22.5C13.5 23.3284 12.8284 24 12 24C11.1716 24 10.5 23.3284 10.5 22.5V20.8636Z" fill="currentColor"/>
<path d="M15.8184 12.4092C15.8184 11.5808 16.4899 10.9092 17.3184 10.9092C18.1468 10.9092 18.8184 11.5808 18.8184 12.4092V17.7274C18.8184 18.5558 18.1468 19.2274 17.3184 19.2274C16.4899 19.2274 15.8184 18.5558 15.8184 17.7274V12.4092Z" fill="currentColor"/>
<path d="M13.5 7.63623V16.3634C13.5 17.1919 12.8284 17.8634 12 17.8634C11.1716 17.8634 10.5 17.1919 10.5 16.3634V7.63623C10.5 6.80776 11.1716 6.13623 12 6.13623C12.8284 6.13623 13.5 6.80776 13.5 7.63623Z" fill="currentColor"/>
</svg>
