<svg width="22" height="18" viewBox="0 0 22 18" xmlns="http://www.w3.org/2000/svg">
<path fill-rule="evenodd" clip-rule="evenodd" d="M4.08669e-05 2.98284C-0.0001178 2.9926 -0.000133772 3.00235 -7.62846e-06 3.0121V15C-7.62846e-06 16.6523 1.34771 18 2.99999 18H19C20.6523 18 22 16.6523 22 15V3.01237C22.0001 3.00242 22.0001 2.99247 21.9999 2.98251C21.9905 1.33822 20.6464 0 19 0H2.99999C1.35343 0 0.00933529 1.33839 4.08669e-05 2.98284ZM2.10657 2.55395C2.27195 2.22692 2.61203 2 2.99999 2H19C19.388 2 19.728 2.22692 19.8934 2.55395L11 8.77935L2.10657 2.55395ZM20 4.92066V15C20 15.5477 19.5477 16 19 16H2.99999C2.45228 16 1.99999 15.5477 1.99999 15V4.92066L10.4265 10.8192C10.7709 11.0603 11.2291 11.0603 11.5735 10.8192L20 4.92066Z" />
</svg>
