<svg width="62" height="61" viewBox="0 0 62 61" xmlns="http://www.w3.org/2000/svg">
<g clip-path="url(#clip0)">
<path fill-rule="evenodd" clip-rule="evenodd" d="M30.7369 0.157959C28.0568 0.157959 25.4865 1.22262 23.5914 3.11772C21.6963 5.01283 20.6316 7.58314 20.6316 10.2632V30.4738C20.6316 33.1538 21.6963 35.7241 23.5914 37.6193C25.4865 39.5144 28.0568 40.579 30.7369 40.579C33.417 40.579 35.9873 39.5144 37.8824 37.6193C39.7775 35.7241 40.8422 33.1538 40.8422 30.4738V10.2632C40.8422 7.58314 39.7775 5.01283 37.8824 3.11772C35.9873 1.22262 33.417 0.157959 30.7369 0.157959ZM27.1641 6.69047C28.1117 5.74292 29.3969 5.21059 30.7369 5.21059C32.0769 5.21059 33.3621 5.74292 34.3096 6.69047C35.2572 7.63802 35.7895 8.92318 35.7895 10.2632V30.4738C35.7895 31.8138 35.2572 33.0989 34.3096 34.0465C33.3621 34.9941 32.0769 35.5264 30.7369 35.5264C29.3969 35.5264 28.1117 34.9941 27.1641 34.0465C26.2166 33.0989 25.6843 31.8138 25.6843 30.4738V10.2632C25.6843 8.92318 26.2166 7.63802 27.1641 6.69047Z" />
<path d="M15.579 25.4211C15.579 24.0259 14.4479 22.8948 13.0527 22.8948C11.6574 22.8948 10.5264 24.0259 10.5264 25.4211V30.4738C10.5264 35.8339 12.6557 40.9745 16.4459 44.7647C19.6357 47.9545 23.7819 49.968 28.2106 50.5258V55.7369H20.6316C19.2364 55.7369 18.1053 56.868 18.1053 58.2632C18.1053 59.6585 19.2364 60.7895 20.6316 60.7895H40.8422C42.2374 60.7895 43.3685 59.6585 43.3685 58.2632C43.3685 56.868 42.2374 55.7369 40.8422 55.7369H33.2632V50.5258C37.6918 49.968 41.8381 47.9545 45.0279 44.7647C48.8181 40.9745 50.9474 35.8339 50.9474 30.4738V25.4211C50.9474 24.0259 49.8164 22.8948 48.4211 22.8948C47.0259 22.8948 45.8948 24.0259 45.8948 25.4211V30.4738C45.8948 34.4939 44.2978 38.3493 41.4551 41.192C38.6125 44.0347 34.757 45.6316 30.7369 45.6316C26.7168 45.6316 22.8613 44.0347 20.0186 41.192C17.176 38.3493 15.579 34.4939 15.579 30.4738V25.4211Z" />
</g>
<defs>
<clipPath id="clip0">
<rect width="60.6316" height="60.6316" fill="white" transform="translate(0.421143 0.157959)"/>
</clipPath>
</defs>
</svg>
