<svg width="28" height="32" viewBox="0 0 28 32" fill="none" xmlns="http://www.w3.org/2000/svg">
<path d="M4.07642 2.66669V10.6667H11.0764" stroke="black" stroke-width="2" stroke-linecap="round" stroke-linejoin="round"/>
<path d="M3.50472 21.3334C4.2631 23.7866 5.69858 25.8916 7.59488 27.3314C9.49117 28.7711 11.7455 29.4674 14.0182 29.3155C16.2909 29.1635 18.4589 28.1715 20.1953 26.4889C21.9318 24.8063 23.1427 22.5243 23.6456 19.9868C24.1485 17.4492 23.9162 14.7936 22.9836 12.4201C22.0509 10.0466 20.4686 8.08384 18.475 6.82754C16.4814 5.57124 14.1845 5.08949 11.9304 5.45488C9.67641 5.82027 7.58734 7.013 5.97806 8.85335" stroke="black" stroke-width="2" stroke-linecap="round" stroke-linejoin="round"/>
<path d="M9.69367 23.1162H11.4172V13.3333H8.16675V14.999H9.69367V23.1162Z" fill="black"/>
<path d="M14.6164 13.3333L13.8645 18.661L15.2642 19.0576C15.6459 18.2909 16.1896 18.1322 16.5945 18.1322C17.5083 18.1322 18.1098 18.9519 18.1098 19.8508C18.1098 20.7895 17.4158 21.5695 16.606 21.5695C15.993 21.5695 15.4146 21.1068 15.2295 20.4325H13.4944C13.7257 22.1247 14.9981 23.3013 16.6523 23.3013C18.7576 23.3013 19.8334 21.3976 19.8334 19.798C19.8334 18.357 18.908 16.5194 16.9762 16.5194C16.2359 16.5194 15.9004 16.7441 15.6459 16.9292L15.9467 14.999H19.1278V13.3333H14.6164Z" fill="black"/>
</svg>
