<svg width="28" height="32" viewBox="0 0 28 32" fill="none" xmlns="http://www.w3.org/2000/svg">
<path d="M23.3333 2.66669V10.6667H16.3333" stroke="black" stroke-width="2" stroke-linecap="round" stroke-linejoin="round"/>
<path d="M23.9049 21.3334C23.1466 23.7866 21.7111 25.8916 19.8148 27.3314C17.9185 28.7711 15.6641 29.4674 13.3914 29.3155C11.1187 29.1635 8.95079 28.1715 7.21432 26.4889C5.47786 24.8063 4.26694 22.5243 3.76403 19.9868C3.26113 17.4492 3.4935 14.7936 4.42611 12.4201C5.35873 10.0466 6.94107 8.08384 8.93469 6.82754C10.9283 5.57124 13.2252 5.08949 15.4792 5.45488C17.7333 5.82027 19.8223 7.013 21.4316 8.85335" stroke="black" stroke-width="2" stroke-linecap="round" stroke-linejoin="round"/>
<path d="M9.69367 23.1162H11.4172V13.3333H8.16675V14.999H9.69367V23.1162Z" fill="black"/>
<path d="M14.6164 13.3333L13.8645 18.661L15.2642 19.0576C15.6459 18.2909 16.1896 18.1322 16.5945 18.1322C17.5083 18.1322 18.1098 18.9519 18.1098 19.8508C18.1098 20.7895 17.4158 21.5695 16.606 21.5695C15.993 21.5695 15.4146 21.1068 15.2295 20.4325H13.4944C13.7257 22.1247 14.9981 23.3013 16.6523 23.3013C18.7576 23.3013 19.8334 21.3976 19.8334 19.798C19.8334 18.357 18.908 16.5194 16.9762 16.5194C16.2359 16.5194 15.9004 16.7441 15.6459 16.9292L15.9467 14.999H19.1278V13.3333H14.6164Z" fill="black"/>
</svg>
