<svg width="24" height="24" viewBox="0 0 24 24" fill="none" xmlns="http://www.w3.org/2000/svg">
<path d="M10.4963 11.8024L12.8535 14.21C13.3073 14.6735 13.3924 15.3843 13.061 15.9419C13.025 16.0024 12.9817 16.0583 12.9321 16.1082C12.598 16.4445 12.0545 16.4463 11.7182 16.1122L9 13.4118L4.17375 18.2065C3.73177 18.6456 3.01823 18.6456 2.57625 18.2065L2.5657 18.1958C2.13634 17.7576 2.14351 17.0543 2.58172 16.625L7.50375 11.8024C6.68711 10.9002 5.7339 9.49485 4.6441 7.58633C4.6321 7.56537 4.62094 7.54394 4.61063 7.5221C4.39026 7.05557 4.58982 6.49873 5.05635 6.27836C5.56632 6.03748 6.17584 6.22397 6.46373 6.70895C7.5478 8.53536 8.39323 9.78237 9 10.45C10.62 8.66176 11.8125 6.61647 12.5662 4.45941H1.11206C0.497886 4.45941 0 3.96153 0 3.34735C0 2.73318 0.497886 2.23529 1.11206 2.23529H7.875V1.125C7.875 0.50368 8.37868 0 9 0C9.62132 0 10.125 0.50368 10.125 1.125V2.23529H16.8824C17.4996 2.23529 18 2.73568 18 3.35294C18 3.9702 17.4996 4.47059 16.8824 4.47059H14.7037C13.8825 7.10824 12.4875 9.60059 10.53 11.7688L10.4963 11.8024Z" fill="currentColor"/>
<path fill-rule="evenodd" clip-rule="evenodd" d="M16.5118 12.016C16.7514 11.4033 17.3421 11 18 11C18.6539 11 19.237 11.4118 19.4555 12.0282L23.2458 22.7156C23.2539 22.7383 23.2609 22.7613 23.2669 22.7846C23.3793 23.2206 23.1169 23.6652 22.6809 23.7776C22.1898 23.9042 21.6821 23.6412 21.5022 23.167L20.5855 20.75H15.4036L14.5736 22.9579C14.3479 23.5583 13.7194 23.9057 13.0909 23.7776C13.0384 23.7669 12.9868 23.7517 12.9369 23.7322C12.4549 23.5437 12.217 23.0003 12.4054 22.5183L16.5118 12.016ZM19.8769 18.8709L18 13.64L16.1128 18.8709H19.8769Z" fill="currentColor"/>
</svg>
