<svg width="24" height="24" viewBox="0 0 24 24" fill="none" xmlns="http://www.w3.org/2000/svg">

<path fill-rule="evenodd" clip-rule="evenodd" d="M14.5255 2.36025C15.5743 1.95994 16.7207 1.8914 17.8098 2.16389C18.6758 2.38058 19.4723 2.80461 20.1326 3.39516C20.9448 3.09664 21.7151 2.69263 22.4236 2.19289L23 3.01006L23.9716 3.24667C23.6291 4.6532 22.9425 5.94962 21.9769 7.02103C21.9917 7.18243 21.9995 7.34449 22 7.50675L22 7.51006C22 13.61 19.0631 18.0851 14.8448 20.3303C10.6509 22.5626 5.29087 22.5378 0.514357 19.8842C0.109546 19.6593 -0.0878996 19.1859 0.0371489 18.74C0.162198 18.2941 0.577024 17.9924 1.03974 18.0108C2.72656 18.0779 4.39637 17.7425 5.91473 17.043C4.41158 16.1155 3.32942 15.0143 2.57706 13.8264C1.57342 12.2417 1.19455 10.563 1.12603 9.05546C1.05771 7.55234 1.29648 6.19895 1.54748 5.22842C1.67358 4.74083 1.80442 4.34356 1.90528 4.06459C1.95577 3.92494 1.99891 3.81447 2.03044 3.73664C2.04621 3.69771 2.05909 3.6669 2.06856 3.64465L2.08013 3.61772L2.08308 3.61097C2.09013 3.59479 2.09762 3.57874 2.10557 3.56284L2.77904 2.19289L3.81836 3.43534C4.7339 4.73902 5.95764 5.79605 7.3806 6.51227C8.51246 7.08197 9.7424 7.42198 10.9997 7.51647C10.9923 6.40681 11.322 5.32071 11.9456 4.40211C12.5761 3.47331 13.4767 2.76055 14.5255 2.36025ZM3.40465 6.05366C3.22096 6.85503 3.07427 7.87129 3.12397 8.96465C3.18045 10.2072 3.48908 11.5284 4.26669 12.7563C5.04029 13.9777 6.31604 15.1673 8.40614 16.0962C8.73794 16.2437 8.96374 16.5594 8.99604 16.9211C9.02833 17.2828 8.86205 17.6335 8.56163 17.8374C7.45069 18.5915 6.2342 19.1589 4.9601 19.5257C8.13027 20.3334 11.307 19.9477 13.9052 18.5648C17.4365 16.6852 19.9995 12.9109 20 7.51172C19.9992 7.29563 19.9784 7.08007 19.9378 6.86781C19.8751 6.53995 19.9802 6.20243 20.2178 5.96805C20.4406 5.74836 20.6469 5.51422 20.8357 5.26756C20.6092 5.35111 20.38 5.42784 20.1483 5.49759C19.7717 5.611 19.3636 5.49309 19.1054 5.19629C18.6376 4.65838 18.0159 4.27712 17.3243 4.10408C16.6327 3.93103 15.9047 3.97456 15.2387 4.22877C14.5726 4.48298 14.0008 4.93561 13.6004 5.52543C13.2 6.11526 12.9904 6.81382 12.9999 7.52665L13.0001 7.54006L13 8.54006C13 9.08224 12.5679 9.52567 12.0259 9.53972C10.1037 9.58956 8.19898 9.16325 6.48141 8.29873C5.33585 7.72213 4.29725 6.96254 3.40465 6.05366Z" fill="currentColor"/>

</svg>
