<svg width="24" height="25" viewBox="0 0 24 25" fill="none" xmlns="http://www.w3.org/2000/svg">
<path d="M23.4982 6.76622C23.3625 6.25563 23.0951 5.78964 22.7227 5.41488C22.3503 5.04011 21.8861 4.76972 21.3764 4.63077C19.5 4.12622 12 4.12622 12 4.12622C12 4.12622 4.5 4.12622 2.62364 4.63077C2.11393 4.76972 1.64966 5.04011 1.27729 5.41488C0.904916 5.78964 0.637506 6.25563 0.501818 6.76622C5.96046e-08 8.65077 0 12.5808 0 12.5808C0 12.5808 5.96046e-08 16.5108 0.501818 18.3953C0.637506 18.9059 0.904916 19.3719 1.27729 19.7467C1.64966 20.1214 2.11393 20.3918 2.62364 20.5308C4.5 21.0353 12 21.0353 12 21.0353C12 21.0353 19.5 21.0353 21.3764 20.5308C21.8861 20.3918 22.3503 20.1214 22.7227 19.7467C23.0951 19.3719 23.3625 18.9059 23.4982 18.3953C24 16.5108 24 12.5808 24 12.5808C24 12.5808 24 8.65077 23.4982 6.76622Z" fill="white"/>
<path d="M9.54547 16.1495V9.01221L15.8182 12.5808L9.54547 16.1495Z" fill="#FF0000"/>
</svg>
