<svg width="62" height="61" viewBox="0 0 62 61" xmlns="http://www.w3.org/2000/svg">
<path fill-rule="evenodd" clip-rule="evenodd" d="M30.737 7.78945C18.1798 7.78945 8.00014 17.9691 8.00014 30.5263C8.00014 43.0835 18.1798 53.2631 30.737 53.2631C43.2942 53.2631 53.4738 43.0835 53.4738 30.5263C53.4738 17.9691 43.2942 7.78945 30.737 7.78945ZM2.94751 30.5263C2.94751 15.1786 15.3893 2.73682 30.737 2.73682C46.0847 2.73682 58.5265 15.1786 58.5265 30.5263C58.5265 45.874 46.0847 58.3158 30.737 58.3158C15.3893 58.3158 2.94751 45.874 2.94751 30.5263Z" />
<path fill-rule="evenodd" clip-rule="evenodd" d="M2.94751 30.5263C2.94751 29.1311 4.07858 28 5.47383 28H56.0001C57.3954 28 58.5265 29.1311 58.5265 30.5263C58.5265 31.9216 57.3954 33.0526 56.0001 33.0526H5.47383C4.07858 33.0526 2.94751 31.9216 2.94751 30.5263Z" />
<path fill-rule="evenodd" clip-rule="evenodd" d="M23.1587 30.5263C23.3318 38.2943 26.0034 45.773 30.737 51.8716C35.4707 45.773 38.1423 38.2943 38.3154 30.5263C38.1423 22.7583 35.4707 15.2796 30.737 9.18093C26.0034 15.2796 23.3318 22.7583 23.1587 30.5263ZM30.737 5.26313L28.8718 3.55933C22.1397 10.9294 18.3139 20.4939 18.106 30.4737C18.1053 30.5087 18.1053 30.5438 18.106 30.5789C18.3139 40.5587 22.1397 50.1232 28.8718 57.4933C29.3504 58.0173 30.0274 58.3158 30.737 58.3158C31.4467 58.3158 32.1237 58.0173 32.6023 57.4933C39.3344 50.1232 43.1602 40.5587 43.3681 30.5789C43.3688 30.5438 43.3688 30.5087 43.3681 30.4737C43.1602 20.4939 39.3344 10.9294 32.6023 3.55933L30.737 5.26313Z" />
</svg>
