<svg width="240" height="201" viewBox="0 0 240 201" fill="none" xmlns="http://www.w3.org/2000/svg">
<rect x="0.5" y="1.07886" width="239" height="198.579" fill="#EFEFEF" stroke="#EFEFEF"/>
<path fill-rule="evenodd" clip-rule="evenodd" d="M90.9476 61.1669C90.9472 61.1916 90.9472 61.2162 90.9475 61.2409V91.5261C90.9475 95.7003 94.3522 99.105 98.5264 99.105H138.947C143.122 99.105 146.526 95.7003 146.526 91.5261V61.2415C146.527 61.2164 146.527 61.1913 146.526 61.1661C146.502 57.0121 143.107 53.6313 138.947 53.6313H98.5264C94.3667 53.6313 90.9711 57.0125 90.9476 61.1669ZM96.2694 60.0834C96.6872 59.2573 97.5463 58.684 98.5264 58.684H138.947C139.928 58.684 140.787 59.2573 141.205 60.0834L118.737 75.8107L96.2694 60.0834ZM141.474 66.0625V91.5261C141.474 92.9098 140.331 94.0524 138.947 94.0524H98.5264C97.1427 94.0524 96.0001 92.9098 96.0001 91.5261V66.0625L117.288 80.9641C118.158 81.5731 119.316 81.5731 120.186 80.9641L141.474 66.0625Z" fill="#E42312"/>
<path d="M87.9336 142.842H97.8696V140.346H90.7656V135.09H97.7736V132.618H90.7656V127.578H97.8696V125.082H87.9336V142.842ZM100.992 142.842H103.488V135.69C103.488 134.634 103.704 133.722 104.184 133.026C104.616 132.306 105.48 131.73 106.656 131.754C107.88 131.778 108.648 132.282 109.128 133.05C109.56 133.77 109.68 134.562 109.656 135.642V142.842H112.176V135.642C112.176 134.538 112.248 133.818 112.776 133.002C113.256 132.21 114.192 131.754 115.296 131.754C116.472 131.754 117.168 132.162 117.624 132.834C118.2 133.578 118.344 134.658 118.344 135.738V142.842H120.84V135.642C120.84 133.146 120.552 131.898 119.4 130.722C118.44 129.738 117.096 129.402 115.896 129.402C114.48 129.402 113.28 129.93 112.44 130.77C111.984 131.226 111.72 131.682 111.504 132.066C111.36 131.826 111 131.13 110.664 130.794C109.752 129.762 108.504 129.402 107.304 129.402C105.408 129.402 103.896 130.53 103.344 131.634V129.786H100.992V142.842ZM137.567 129.786H135.071V132.09C134.471 130.842 132.815 129.402 130.223 129.402C126.431 129.402 123.527 132.33 123.527 136.314C123.527 139.962 126.023 143.226 130.223 143.226C132.287 143.226 134.159 142.314 135.071 140.562V142.842H137.567V129.786ZM126.023 136.338C126.023 133.89 127.799 131.73 130.535 131.73C132.623 131.73 134.087 132.906 134.711 134.418C134.999 135.018 135.119 135.69 135.095 136.362C135.071 137.034 134.927 137.706 134.639 138.306C133.991 139.794 132.575 140.898 130.583 140.898C127.415 140.898 126.047 138.306 126.023 136.362V136.338ZM141.105 127.722H143.601V125.082H141.105V127.722ZM141.105 142.842H143.601V129.786H141.105V142.842ZM147.111 142.842H149.607V125.082H147.111V142.842Z" fill="#E42312"/>
</svg>
