<svg width="62" height="62" viewBox="0 0 62 62" xmlns="http://www.w3.org/2000/svg">
<path fill-rule="evenodd" clip-rule="evenodd" d="M18.1053 8.05263C16.7101 8.05263 15.579 9.1837 15.579 10.5789V51C15.579 52.3952 16.7101 53.5263 18.1053 53.5263H43.3685C44.7637 53.5263 45.8948 52.3952 45.8948 51V10.5789C45.8948 9.1837 44.7637 8.05263 43.3685 8.05263H18.1053ZM10.5264 10.5789C10.5264 6.39321 13.9196 3 18.1053 3H43.3685C47.5542 3 50.9474 6.39321 50.9474 10.5789V51C50.9474 55.1857 47.5542 58.5789 43.3685 58.5789H18.1053C13.9196 58.5789 10.5264 55.1857 10.5264 51V10.5789Z" />
<path fill-rule="evenodd" clip-rule="evenodd" d="M28.2107 45.9472C28.2107 44.552 29.3418 43.4209 30.737 43.4209H30.7623C32.1575 43.4209 33.2886 44.552 33.2886 45.9472C33.2886 47.3425 32.1575 48.4735 30.7623 48.4735H30.737C29.3418 48.4735 28.2107 47.3425 28.2107 45.9472Z"/>
</svg>